# xmcd
#
# Track frame offsets: 
#        150
#        33323
#        55918
#        83105
#        101963
#        127273
#        157670
#        175658
#        197425
#        220173
#        242333
#
# Disc length: 3419 seconds
#
# Revision: 3
# Processed by: cddbd v1.5.2PL0 Copyright (c) Steve Scherf et al.
# Submitted via: ExactAudioCopy v0.99pb4
#
DISCID=890d590b
DTITLE=Stephane Grappelli - Plays Jerome Kern
DYEAR=1987
DGENRE=Jazz
TTITLE0=Smoke Gets in Your Eyes
TTITLE1=The Way You Look Tonight
TTITLE2=Can't Help Lovin' Dat Man
TTITLE3=A Fine Romance
TTITLE4=Yesterdays
TTITLE5=Ol' Man River
TTITLE6=All the Things You Are
TTITLE7=Pick Yourself Up
TTITLE8=Why do I Love You
TTITLE9=I Won't Dance
TTITLE10=Long Ago and Far Away
EXTD=YEAR: 1987
EXTT0=
EXTT1=
EXTT2=
EXTT3=
EXTT4=
EXTT5=
EXTT6=
EXTT7=
EXTT8=
EXTT9=
EXTT10=
PLAYORDER=
